<svg xmlns="http://www.w3.org/2000/svg" viewBox="0 0 118.82 71.96"><defs><style>.cls-1{fill:#00a770;}</style></defs><title>Asset 1</title><g id="Layer_2" data-name="Layer 2"><g id="Layer_1-2" data-name="Layer 1"><path class="cls-1" d="M36.44,0c8.89-.17,16.06,9.66,12,18.3C41,34.07,33,49.62,25,65.08c-3.5,6.69-11.2,8.62-17.61,5.24S-1.9,59.73,1.42,52.86c7.45-15.41,15.19-30.68,23-45.92C26.68,2.45,30.73.27,36.44,0Z"/><path class="cls-1" d="M89.76,13.3a12.17,12.17,0,0,1-1.47,6.25C80.93,34.29,73.64,49.07,66.14,63.74,62.25,71.35,54.6,74,47.71,70.38s-9.05-11.29-5.29-18.86c7.18-14.47,14.29-29,21.73-43.3,5.19-10,17.74-10.92,23.55-2A11.75,11.75,0,0,1,89.76,13.3Z"/><path class="cls-1" d="M118.82,53.2c0,9.48-8.17,17.57-17.53,17.5-9.55-.07-17.89-8.51-17.78-18,.11-9.33,8.32-17.31,17.78-17.3A17.27,17.27,0,0,1,118.82,53.2Z"/></g></g></svg>