<svg xmlns="http://www.w3.org/2000/svg" viewBox="0 0 231.97 257"><defs><style>.cls-1{fill:#00a770;
;}</style></defs><title>Asset 1</title><g id="Layer_2" data-name="Layer 2"><g id="Layer_1-2" data-name="Layer 1"><path class="cls-1" d="M24.57,257c-11.18,0-19.33-6.27-22.5-17A50.64,50.64,0,0,1,0,225.66q0-97,0-193.91a59.71,59.71,0,0,1,.88-9.43C4,3.45,19.32-4.87,36.92,2.89c9.92,4.38,19,10.33,28.41,15.71Q139.7,61.15,214,103.85a46.36,46.36,0,0,1,12,9.72c8,9.16,8,20.78.12,29.94a45.51,45.51,0,0,1-11.93,9.77q-84.51,48.47-169,96.94C38.59,254,31.91,257.43,24.57,257Z"/></g></g></svg>